<?xml version="1.0" standalone="no"?>
<!DOCTYPE svg PUBLIC "-//W3C//DTD SVG 20010904//EN"
 "http://www.w3.org/TR/2001/REC-SVG-20010904/DTD/svg10.dtd">
<svg version="1.0" xmlns="http://www.w3.org/2000/svg"
 width="745.000000pt" height="745.000000pt" viewBox="0 0 745.000000 745.000000"
 preserveAspectRatio="xMidYMid meet">
<metadata>
Created by potrace 1.11, written by Peter Selinger 2001-2013
</metadata>
<g transform="translate(0.000000,745.000000) scale(0.100000,-0.100000)"
fill="#000000" stroke="none">
<path d="M1495 5565 c-200 -27 -349 -71 -507 -150 -338 -169 -577 -413 -744
-760 -144 -299 -206 -605 -199 -990 5 -327 49 -552 162 -825 226 -548 708
-917 1288 -987 87 -10 4366 -11 4453 0 528 63 980 380 1227 862 88 172 168
420 196 609 6 39 13 82 16 96 9 47 12 465 3 535 -5 39 -12 86 -14 106 -13 94
-50 252 -87 362 -150 459 -443 805 -844 997 -139 66 -298 116 -430 134 -22 3
-69 10 -105 15 -105 15 -4303 11 -4415 -4z m4400 -398 c22 -4 54 -10 70 -13
69 -13 196 -59 276 -100 295 -152 514 -446 612 -820 14 -54 29 -115 32 -134 3
-19 10 -60 15 -90 29 -180 29 -411 -1 -605 -15 -96 -18 -115 -46 -220 -117
-446 -407 -775 -787 -890 -186 -56 -85 -54 -2361 -54 -1242 0 -2114 3 -2135 8
-19 5 -51 12 -70 15 -194 27 -428 153 -583 313 -189 196 -310 452 -367 778
-26 150 -30 198 -30 355 -1 490 158 916 439 1175 138 127 336 235 482 260 18
3 35 8 39 10 3 2 30 6 60 10 30 3 56 8 59 10 7 8 4254 0 4296 -8z"/>
<path d="M2500 4923 c48 -41 113 -105 146 -145 56 -66 172 -256 175 -285 0 -5
5 -13 9 -18 28 -34 109 -305 125 -418 3 -27 8 -59 11 -70 8 -41 17 -172 18
-262 4 -289 -65 -608 -179 -835 -84 -167 -242 -359 -354 -431 l-45 -29 320 0
c371 0 323 -15 417 130 108 168 191 359 242 560 15 58 29 116 31 130 2 14 6
34 9 45 39 180 44 525 10 765 -39 278 -160 601 -303 810 l-58 85 -309 3 -309
2 44 -37z"/>
<path d="M4358 4943 c-54 -64 -161 -250 -215 -378 -26 -62 -68 -187 -89 -269
-18 -68 -19 -76 -35 -161 -5 -33 -12 -71 -15 -85 -29 -161 -26 -549 5 -720 6
-30 13 -69 16 -87 6 -34 43 -174 70 -262 45 -147 151 -355 245 -483 l50 -68
317 0 c174 0 313 4 308 8 -6 4 -32 26 -60 47 -197 155 -353 408 -430 697 -141
530 -61 1119 204 1506 61 88 156 194 221 244 l35 28 -306 0 c-279 0 -307 -2
-321 -17z"/>
</g>
</svg>
